# xmcd
#
# Track frame offsets:
#	150
#	16285
#	32109
#	47963
#	63006
#	77573
#	89636
#	102637
#	120152
#	137835
#	157186
#	170216
#	181368
#	194165
#	206389
#
# Disc length: 3023 seconds
#
# Revision: 1
# Processed by: cddbd v1.5.2PL0 Copyright (c) Steve Scherf et al.
# Submitted via: audiograbber 1.83.01
#
DISCID=d60bcd0f
DTITLE=CDX - 508
DYEAR=2010
DGENRE=Country
TTITLE0=Dierks Bentley - Draw Me A Map
TTITLE1=Jerrod Niemann - What Do You Want
TTITLE2=Lorrie Morgan - I Walk Alone
TTITLE3=Kate Russell - Damned If I Do
TTITLE4=Thea Wescott - Fields Of Gold
TTITLE5=T Ray Walters - Fraulein Senorita
TTITLE6=Tobi Gordon - Grandma's Love Recipe
TTITLE7=Taylor Made - Quiet Kind Of Crazy
TTITLE8=Kim McLean - Sweet Tea
TTITLE9=Daniel Smith - Until I Close My Eyes For Good
TTITLE10=Jason Green - Up In The Air
TTITLE11=Mel Tillis - I'm So Proud Of You
TTITLE12=Mel Tillis - Peed On The Matches
TTITLE13=Mel Tillis - Mole Asses
TTITLE14=Mark Thompson - A Soldier With A Gun
EXTD=
EXTT0=
EXTT1=
EXTT2=
EXTT3=
EXTT4=
EXTT5=
EXTT6=
EXTT7=
EXTT8=
EXTT9=
EXTT10=
EXTT11=
EXTT12=
EXTT13=
EXTT14=
PLAYORDER=
